<svg width="227" height="24" viewBox="0 0 227 24" fill="none" xmlns="http://www.w3.org/2000/svg">
<path d="M107.477 2.56057C109.492 1.94299 111.774 1.25416 113.756 0.608076C114.331 0.418052 114.478 0.517815 114.478 0.973872V16.8646C114.478 17.2352 114.511 17.3159 114.754 17.4442L116.465 18.3705C116.75 18.5368 116.684 18.7173 116.503 18.8504C115.5 19.5962 114.554 20.3325 113.542 21.1639C111.75 20.3135 109.863 19.5107 108.071 18.8076C107.781 18.6936 107.781 18.5368 107.99 18.342L108.874 17.5202V4.85986C108.874 3.72447 108.47 3.21615 107.453 2.96437C107.21 2.90261 107.187 2.65083 107.486 2.56057H107.477Z" fill="#191919"/>
<path fill-rule="evenodd" clip-rule="evenodd" d="M100.722 2.91211C100.751 1.39192 101.749 0.180523 103.356 0.223278C104.696 0.261283 105.528 1.12589 105.48 2.61758C105.423 4.48931 103.313 5.74347 102.162 5.67221C101.459 5.62945 100.694 4.49406 100.722 2.91211Z" fill="#191919"/>
<path d="M105.067 16.8599C105.067 17.2304 105.1 17.3112 105.342 17.4394L107.054 18.3658C107.344 18.5226 107.272 18.7126 107.092 18.8456C106.089 19.5914 105.143 20.3278 104.13 21.1591C102.338 20.3088 100.451 19.5059 98.6593 18.8029C98.3693 18.6888 98.3693 18.5321 98.5784 18.3373L99.4626 17.5154V10.266C99.4626 9.89549 99.4293 9.81473 99.1869 9.68646L97.4757 8.75535C97.1857 8.59858 97.2523 8.4038 97.4377 8.27554C98.4073 7.59145 99.5719 6.73634 100.537 5.962C102.3 6.8171 104.021 7.5772 105.87 8.31829C106.16 8.43706 106.16 8.58907 105.951 8.78385L105.067 9.6057V16.8599Z" fill="#191919"/>
<path d="M90.0463 17.8812V10.2708C90.0463 9.93349 90.0225 9.80048 89.7706 9.69121L87.3322 8.45606C85.9775 9.25891 84.9508 10.6556 84.9508 12.7078C84.9508 16.5463 88.1402 18.5511 90.0415 17.8812H90.0463ZM89.5662 18.7553C88.5965 19.4537 87.375 20.4181 86.4813 21.1686C84.3186 21.1686 80.6871 19.4822 80.6871 15.5962C80.6871 10.7268 85.7969 7.31116 90.9875 5.96675C92.7794 6.8171 94.6665 7.61995 96.4585 8.32304C96.7484 8.43706 96.7484 8.59382 96.5393 8.7886L95.6552 9.61045V16.8599C95.6552 17.2304 95.6885 17.3112 95.9309 17.4394L97.6421 18.3658C97.932 18.5226 97.8607 18.7126 97.6801 18.8456C96.6771 19.5914 95.7312 20.3278 94.7188 21.1591C93.1835 20.4323 91.2204 19.4584 89.5662 18.7458V18.7553Z" fill="#191919"/>
<path d="M68.9607 16.8599C68.9607 17.2304 68.9892 17.3254 69.2364 17.4394L69.6167 17.62V12.9786H68.9607V16.8599ZM68.9607 3.51069V9.02138H69.6167V3.32067C69.5073 3.28266 69.417 3.26366 69.3552 3.26366C69.1318 3.26366 69.0225 3.37767 68.956 3.51069H68.9607ZM60.2717 17.6485V3.32542C60.1576 3.28741 60.0673 3.26366 60.0103 3.26366C59.7869 3.26366 59.6728 3.37767 59.611 3.51069V16.8599C59.611 17.2304 59.6443 17.3112 59.8867 17.4394L60.2717 17.6485ZM60.5902 17.8195L61.5979 18.3658C61.8831 18.5321 61.8165 18.7126 61.6359 18.8456C60.6329 19.5914 59.687 20.3278 58.6746 21.1591C56.9349 20.3991 54.6676 19.4584 52.9279 18.8029C52.6379 18.6888 52.6094 18.5036 52.8423 18.3373L54.0021 17.5154V5.05463C54.0021 4.68409 53.9688 4.60333 53.7264 4.47506L51.4306 3.23515C51.1406 3.07839 51.2119 2.88836 51.3926 2.75534C52.3955 2.0095 53.9261 0.836105 54.9433 0C56.6402 0.859858 58.2753 1.61995 59.8439 2.26603C61.094 1.61045 62.4012 0.874109 63.7321 0C65.3244 0.945368 67.1164 1.89074 68.5947 2.58907C69.9732 1.81473 71.4609 0.940618 72.8774 0C74.6552 1.01663 76.9225 2.14727 78.5719 2.88361C78.8571 3.01188 78.8618 3.15439 78.6527 3.34917L78.3152 3.64846V15.1876C78.3152 16.9501 78.6289 17.6342 79.5748 17.9905C79.822 18.0855 79.8172 18.285 79.6414 18.4086C78.6289 19.1401 77.1078 20.2613 75.9005 21.1686C73.2482 20.5938 72.7063 19.2732 72.7063 16.2185V5.36342C72.7063 4.99287 72.6635 4.92637 72.4306 4.7791C71.8935 4.44181 70.6957 3.76722 69.9399 3.44418V9.01663H72.3593L69.9399 12.9359V17.7672L71.2138 18.3658C71.5132 18.5083 71.4372 18.7173 71.2518 18.8456C70.2488 19.5344 69.1508 20.323 68.0291 21.1591C66.2371 20.3088 64.35 19.5059 62.558 18.8029C62.2681 18.6888 62.2681 18.5321 62.4772 18.3373L63.3613 17.5154V12.9786H60.5902V17.8195ZM60.5902 3.44893V12.1283L62.5533 9.02138H63.3518V5.36817C63.3518 4.99763 63.309 4.93112 63.0761 4.78385C62.539 4.44656 61.3412 3.77197 60.5902 3.44893Z" fill="#191919"/>
<path d="M5.54709 19.848H0V1.53444H5.2714C9.72048 1.53444 12.8054 4.07126 12.8054 10.3325V11.0784C12.8054 16.9454 10.3432 19.8527 5.54233 19.8527L5.54709 19.848ZM11.2891 10.4561C11.2891 5.38717 9.12631 2.72684 5.19534 2.72684H1.46877V18.6841H5.69444C9.37348 18.6841 11.2891 16.323 11.2891 10.9549V10.4561Z" fill="#191919"/>
<path d="M23.9185 19.848L23.8187 17.3397C23.196 19.0309 21.2567 20.0238 19.0702 20.0238C16.3371 20.0238 14.046 18.5321 14.046 15.2542V15.0071C14.046 12.247 16.0376 10.209 19.3174 10.209C21.2805 10.209 22.9726 11.0309 23.795 12.5938V9.5867C23.795 8.14727 22.9251 6.75534 20.1397 6.75534C18.4475 6.75534 16.7316 7.22565 15.7857 7.74822V6.53207C16.7078 6.03325 18.3239 5.61045 20.3346 5.61045C23.8663 5.61045 25.1829 7.6247 25.1829 9.48694V19.8527H23.9138L23.9185 19.848ZM23.7902 14.8029C23.7902 13.0119 22.1218 11.2732 19.536 11.2732C17.1261 11.2732 15.4577 12.7648 15.4577 14.8266V15.1972C15.4577 17.658 17.1499 18.9264 19.536 18.9264C22.2216 18.9264 23.7902 17.1876 23.7902 15.1734V14.8029Z" fill="#191919"/>
<path d="M27.9351 4.34204V2.22803H29.7984V4.34204H27.9351ZM28.1585 19.848V5.90499H29.6272V19.848H28.1585Z" fill="#191919"/>
<path d="M32.2558 1.53444H33.6961V19.8527H32.2558V1.53444Z" fill="#191919"/>
<path d="M40.8212 24H39.381L41.2728 19.7245L35.3787 5.981H36.895L42.0904 18.1093L47.338 5.981H48.7782L40.8212 24Z" fill="#191919"/>
<path d="M124.8 2.00012V22.0001" stroke="black" stroke-opacity="0.2" stroke-linecap="round"/>
<path d="M142.976 20.6511C141.112 20.6511 139.529 20.244 138.226 19.4297C136.941 18.6154 135.964 17.4754 135.294 16.0097C134.625 14.544 134.29 12.843 134.29 10.9068C134.29 9.33254 134.516 7.92112 134.969 6.67254C135.439 5.40588 136.109 4.33826 136.977 3.46969C137.846 2.58302 138.877 1.90445 140.071 1.43397C141.266 0.963496 142.587 0.728258 144.034 0.728258C145.084 0.728258 145.97 0.863972 146.694 1.1354C147.418 1.40683 148.051 1.76873 148.594 2.22112L148.947 0.701115H150.684L151.77 7.51397L149.544 7.94826C149.164 6.88064 148.739 6.01207 148.269 5.34254C147.798 4.67302 147.255 4.1754 146.64 3.84969C146.025 3.52397 145.292 3.36112 144.441 3.36112C143.736 3.36112 143.111 3.50588 142.569 3.7954C142.044 4.08492 141.6 4.51921 141.239 5.09826C140.877 5.67731 140.596 6.39207 140.397 7.24254C140.216 8.09302 140.126 9.07016 140.126 10.174C140.126 11.513 140.243 12.644 140.479 13.5668C140.714 14.4897 141.021 15.2406 141.401 15.8197C141.799 16.3806 142.261 16.7968 142.786 17.0683C143.31 17.3216 143.862 17.4483 144.441 17.4483C144.803 17.4483 145.138 17.4211 145.446 17.3668C145.771 17.3125 146.061 17.2311 146.314 17.1225C146.586 17.014 146.821 16.8873 147.02 16.7425V14.0825C147.02 13.6664 146.975 13.3406 146.884 13.1054C146.794 12.8521 146.54 12.7073 146.124 12.6711L145.039 12.5625V10.554H153.806V12.5625L152.991 12.6711C152.593 12.7254 152.34 12.8611 152.231 13.0783C152.141 13.2773 152.096 13.6211 152.096 14.1097V20.3254H149.544L148.296 18.6425C148.06 18.8597 147.708 19.1311 147.237 19.4568C146.767 19.7645 146.179 20.0359 145.473 20.2711C144.767 20.5245 143.935 20.6511 142.976 20.6511ZM158.811 20.6511C157.454 20.6511 156.396 20.3164 155.636 19.6468C154.894 18.9773 154.523 18.0725 154.523 16.9325C154.523 15.8287 154.803 14.9783 155.364 14.3811C155.943 13.7659 156.812 13.3225 157.97 13.0511C159.128 12.7797 160.612 12.6078 162.421 12.5354V10.3911C162.421 9.75778 162.367 9.24207 162.258 8.84397C162.15 8.42778 161.951 8.12921 161.661 7.94826C161.372 7.74921 160.965 7.64969 160.44 7.64969C160.06 7.64969 159.671 7.70397 159.273 7.81254C158.875 7.92112 158.54 8.06588 158.268 8.24683C158.522 8.57254 158.712 8.86207 158.838 9.1154C158.965 9.36874 159.056 9.57683 159.11 9.73969C159.164 9.90255 159.191 10.0564 159.191 10.2011C159.191 10.6354 159.001 10.9973 158.621 11.2868C158.241 11.5764 157.662 11.7211 156.884 11.7211C156.178 11.7211 155.654 11.5583 155.31 11.2325C154.984 10.8887 154.821 10.4544 154.821 9.92969C154.821 9.18778 155.084 8.51826 155.608 7.92112C156.133 7.30588 156.893 6.81731 157.888 6.4554C158.884 6.0754 160.06 5.8854 161.417 5.8854C162.865 5.8854 164.059 6.0754 165 6.4554C165.941 6.81731 166.646 7.39635 167.117 8.19254C167.587 8.98874 167.823 10.0202 167.823 11.2868V16.7154C167.823 17.1316 167.886 17.4392 168.013 17.6383C168.139 17.8373 168.375 17.9368 168.718 17.9368C168.899 17.9368 169.071 17.9187 169.234 17.8825C169.397 17.8464 169.56 17.8011 169.723 17.7468L170.048 19.294C169.632 19.674 169.089 19.9997 168.42 20.2711C167.768 20.5245 167.072 20.6511 166.33 20.6511C165.371 20.6511 164.611 20.443 164.05 20.0268C163.489 19.5925 163.127 19.0587 162.964 18.4254C162.765 18.8054 162.485 19.1673 162.123 19.5111C161.779 19.8549 161.336 20.1264 160.793 20.3254C160.25 20.5425 159.589 20.6511 158.811 20.6511ZM160.956 18.154C161.281 18.154 161.553 18.0906 161.77 17.964C161.987 17.8192 162.15 17.6202 162.258 17.3668C162.367 17.1135 162.421 16.8149 162.421 16.4711V14.2454C161.806 14.2635 161.299 14.3449 160.901 14.4897C160.503 14.6345 160.214 14.8606 160.033 15.1683C159.852 15.4759 159.761 15.883 159.761 16.3897C159.761 16.9506 159.852 17.3849 160.033 17.6925C160.214 18.0002 160.521 18.154 160.956 18.154ZM170.047 20.2711V18.3711L170.997 18.2083C171.268 18.1721 171.449 18.0725 171.54 17.9097C171.63 17.7468 171.675 17.4211 171.675 16.9325V10.1468C171.675 9.60397 171.621 9.22397 171.512 9.00683C171.404 8.78969 171.141 8.65397 170.725 8.59969L169.83 8.46397L170.02 6.40112L176.072 6.04826L176.48 6.31969L176.642 8.87112H176.751C177.022 8.23778 177.375 7.70397 177.81 7.26969C178.262 6.81731 178.778 6.4735 179.357 6.23826C179.954 6.00302 180.614 5.8854 181.338 5.8854C182.478 5.8854 183.392 6.13873 184.08 6.6454C184.767 7.15207 185.238 7.83969 185.491 8.70826C185.907 7.8035 186.495 7.10683 187.255 6.61826C188.015 6.12969 188.938 5.8854 190.024 5.8854C191.037 5.8854 191.87 6.0935 192.521 6.50969C193.172 6.90778 193.652 7.46874 193.96 8.19254C194.267 8.89826 194.421 9.71254 194.421 10.6354V17.1225C194.421 17.5206 194.475 17.8011 194.584 17.964C194.692 18.1087 194.919 18.2083 195.262 18.2625L196.077 18.3711V20.2711H187.961V18.3983L188.368 18.344C188.658 18.2897 188.839 18.1811 188.911 18.0183C189.001 17.8373 189.047 17.5478 189.047 17.1497V11.4497C189.047 10.8164 189.001 10.3187 188.911 9.95683C188.82 9.59493 188.676 9.35064 188.477 9.22397C188.278 9.07921 188.015 9.00683 187.69 9.00683C187.364 9.00683 187.047 9.10635 186.74 9.3054C186.45 9.48635 186.215 9.77588 186.034 10.174C185.853 10.5721 185.762 11.0878 185.762 11.7211V17.0954C185.762 17.4754 185.79 17.7649 185.844 17.964C185.898 18.163 186.079 18.2806 186.387 18.3168L186.848 18.3983V20.2711H179.275V18.3983L179.682 18.344C179.972 18.2897 180.153 18.1811 180.225 18.0183C180.316 17.8373 180.361 17.5478 180.361 17.1497V11.4497C180.361 10.7802 180.316 10.2735 180.225 9.92969C180.135 9.58588 179.99 9.35064 179.791 9.22397C179.592 9.07921 179.33 9.00683 179.004 9.00683C178.678 9.00683 178.361 9.10635 178.054 9.3054C177.764 9.48635 177.529 9.77588 177.348 10.174C177.167 10.554 177.077 11.0606 177.077 11.694V17.0954C177.077 17.4754 177.104 17.7649 177.158 17.964C177.212 18.163 177.393 18.2806 177.701 18.3168L178.162 18.3983V20.2711H170.047ZM204.187 20.6511C202.559 20.6511 201.193 20.3616 200.089 19.7825C198.985 19.2035 198.153 18.3892 197.592 17.3397C197.031 16.2721 196.75 15.0416 196.75 13.6483C196.75 11.9654 197.094 10.554 197.782 9.41397C198.469 8.25588 199.41 7.37826 200.604 6.78112C201.817 6.18397 203.183 5.8854 204.703 5.8854C206.006 5.8854 207.128 6.0935 208.069 6.50969C209.028 6.92588 209.77 7.54112 210.294 8.3554C210.819 9.16969 211.082 10.1559 211.082 11.314C211.082 11.7302 211.063 12.1554 211.027 12.5897C210.991 13.0059 210.928 13.3949 210.837 13.7568H202.287C202.342 14.4625 202.504 15.0597 202.776 15.5483C203.047 16.0187 203.427 16.3806 203.916 16.634C204.404 16.8692 204.983 16.9868 205.653 16.9868C206.522 16.9868 207.291 16.8692 207.96 16.634C208.63 16.3987 209.299 16.0459 209.969 15.5754L211.272 17.0954C210.548 18.1268 209.589 18.9773 208.394 19.6468C207.2 20.3164 205.798 20.6511 204.187 20.6511ZM202.26 11.6668H205.924C205.961 11.4135 205.979 11.1692 205.979 10.934C205.997 10.6987 206.006 10.4635 206.006 10.2283C206.006 9.50445 205.879 8.95254 205.626 8.57254C205.373 8.19254 204.993 8.00254 204.486 8.00254C204.015 8.00254 203.617 8.14731 203.292 8.43683C202.984 8.70826 202.74 9.1154 202.559 9.65826C202.396 10.2011 202.296 10.8706 202.26 11.6668ZM212.787 20.6783L212.407 15.6297L214.579 15.494C214.868 16.1997 215.203 16.7787 215.583 17.2311C215.981 17.6835 216.424 18.0183 216.913 18.2354C217.42 18.4525 217.963 18.5611 218.542 18.5611C219.247 18.5611 219.763 18.4254 220.089 18.154C220.433 17.8825 220.604 17.4935 220.604 16.9868C220.604 16.643 220.496 16.3806 220.279 16.1997C220.062 16.0006 219.727 15.8287 219.274 15.684C218.84 15.5392 218.279 15.3945 217.592 15.2497C216.994 15.1049 216.388 14.933 215.773 14.734C215.176 14.5168 214.624 14.2454 214.117 13.9197C213.629 13.5759 213.231 13.1325 212.923 12.5897C212.634 12.0468 212.489 11.3683 212.489 10.554C212.489 9.54064 212.724 8.69016 213.194 8.00254C213.683 7.31493 214.353 6.79016 215.203 6.42826C216.054 6.06635 217.04 5.8854 218.162 5.8854C218.94 5.8854 219.627 5.97588 220.224 6.15683C220.84 6.31969 221.364 6.52778 221.799 6.78112L222.043 5.8854H223.834L224.133 10.5811L222.016 10.4454C221.636 9.48635 221.138 8.79874 220.523 8.38254C219.908 7.94826 219.229 7.73112 218.487 7.73112C217.872 7.73112 217.402 7.83969 217.076 8.05683C216.75 8.27397 216.587 8.60874 216.587 9.06112C216.587 9.38683 216.687 9.64921 216.886 9.84826C217.103 10.0473 217.438 10.2283 217.89 10.3911C218.343 10.5359 218.894 10.6897 219.546 10.8525C220.27 11.0335 220.948 11.2325 221.582 11.4497C222.215 11.6668 222.767 11.9473 223.237 12.2911C223.726 12.6349 224.097 13.0692 224.35 13.594C224.622 14.1006 224.757 14.743 224.757 15.5211C224.757 16.6068 224.513 17.5387 224.024 18.3168C223.536 19.0768 222.848 19.6559 221.962 20.054C221.075 20.4521 220.044 20.6511 218.867 20.6511C218.035 20.6511 217.284 20.5516 216.614 20.3525C215.945 20.1535 215.375 19.9183 214.904 19.6468L214.579 20.6783H212.787Z" fill="#191919"/>
</svg>
