<svg width="250" height="19" viewBox="0 0 250 19" fill="none" xmlns="http://www.w3.org/2000/svg">
<path d="M6.17441 14.5259C4.91441 14.5259 3.82241 14.2739 2.89841 13.7699C1.97441 13.2659 1.26041 12.5279 0.756406 11.5559C0.252406 10.5839 0.000406295 9.40193 0.000406295 8.00993C0.000406295 7.00193 0.144406 6.09593 0.432406 5.29193C0.732406 4.47593 1.15841 3.77993 1.71041 3.20393C2.26241 2.61593 2.92241 2.16593 3.69041 1.85392C4.47041 1.52993 5.34041 1.36793 6.30041 1.36793C6.91241 1.36793 7.44641 1.45193 7.90241 1.61993C8.35841 1.78793 8.77241 2.01593 9.14441 2.30393L9.37841 1.36793H10.6744L11.3584 5.88593L9.68441 6.20993C9.44441 5.50193 9.16841 4.94393 8.85641 4.53593C8.54441 4.11593 8.20241 3.81593 7.83041 3.63593C7.45841 3.45593 7.05641 3.36593 6.62441 3.36593C5.98841 3.36593 5.46641 3.53393 5.05841 3.86993C4.66241 4.19393 4.36241 4.67393 4.15841 5.30993C3.96641 5.93393 3.87041 6.67793 3.87041 7.54193C3.87041 8.42993 3.96041 9.17393 4.14041 9.77393C4.33241 10.3619 4.58441 10.8299 4.89641 11.1779C5.20841 11.5139 5.55641 11.7539 5.94041 11.8979C6.33641 12.0419 6.74441 12.1139 7.16441 12.1139C7.66841 12.1139 8.13041 12.0419 8.55041 11.8979C8.98241 11.7539 9.36041 11.5679 9.68441 11.3399C10.0084 11.1119 10.2724 10.8839 10.4764 10.6559L11.5384 12.0779C11.3344 12.3299 11.0764 12.5999 10.7644 12.8879C10.4524 13.1759 10.0744 13.4459 9.63041 13.6979C9.19841 13.9379 8.69441 14.1359 8.11841 14.2919C7.54241 14.4479 6.89441 14.5259 6.17441 14.5259ZM15.5504 14.5259C14.6264 14.5259 13.9124 14.3039 13.4084 13.8599C12.9044 13.4159 12.6524 12.8159 12.6524 12.0599C12.6524 11.3159 12.8444 10.7459 13.2284 10.3499C13.6124 9.94193 14.1884 9.64793 14.9564 9.46793C15.7364 9.28793 16.7204 9.17393 17.9084 9.12593V7.86593C17.9084 7.45793 17.8724 7.12193 17.8004 6.85793C17.7404 6.58193 17.6144 6.37793 17.4224 6.24593C17.2424 6.11393 16.9724 6.04793 16.6124 6.04793C16.3724 6.04793 16.1264 6.08393 15.8744 6.15593C15.6344 6.21593 15.4244 6.29993 15.2444 6.40793C15.3764 6.59993 15.4784 6.77393 15.5504 6.92993C15.6344 7.07393 15.6884 7.19993 15.7124 7.30793C15.7484 7.41593 15.7664 7.51193 15.7664 7.59593C15.7664 7.88393 15.6344 8.12393 15.3704 8.31593C15.1184 8.50793 14.7344 8.60393 14.2184 8.60393C13.7504 8.60393 13.4024 8.49593 13.1744 8.27993C12.9584 8.06393 12.8504 7.78193 12.8504 7.43393C12.8504 6.92993 13.0304 6.47393 13.3904 6.06593C13.7504 5.65793 14.2604 5.33993 14.9204 5.11193C15.5804 4.87193 16.3604 4.75192 17.2604 4.75192C18.2324 4.75192 19.0244 4.87793 19.6364 5.12993C20.2604 5.38193 20.7224 5.77193 21.0224 6.29993C21.3224 6.81593 21.4724 7.48193 21.4724 8.29793V11.8079C21.4724 12.0839 21.5144 12.2879 21.5984 12.4199C21.6944 12.5519 21.8564 12.6179 22.0844 12.6179C22.2044 12.6179 22.3184 12.6059 22.4264 12.5819C22.5344 12.5579 22.6364 12.5279 22.7324 12.4919L22.9844 13.6619C22.7204 13.8779 22.3664 14.0759 21.9224 14.2559C21.4904 14.4359 21.0224 14.5259 20.5184 14.5259C19.8824 14.5259 19.3784 14.3879 19.0064 14.1119C18.6344 13.8359 18.3944 13.4879 18.2864 13.0679C18.1664 13.3079 17.9864 13.5419 17.7464 13.7699C17.5064 13.9859 17.2064 14.1659 16.8464 14.3099C16.4864 14.4539 16.0544 14.5259 15.5504 14.5259ZM16.9364 12.7979C17.1404 12.7979 17.3144 12.7559 17.4584 12.6719C17.6024 12.5879 17.7104 12.4619 17.7824 12.2939C17.8664 12.1259 17.9084 11.9279 17.9084 11.6999V10.4039C17.5004 10.4039 17.1644 10.4519 16.9004 10.5479C16.6364 10.6319 16.4384 10.7699 16.3064 10.9619C16.1864 11.1419 16.1264 11.3879 16.1264 11.6999C16.1264 12.0359 16.1864 12.3059 16.3064 12.5099C16.4384 12.7019 16.6484 12.7979 16.9364 12.7979ZM23.3609 14.2739V12.8519L23.9909 12.7259C24.1829 12.7019 24.3089 12.6359 24.3689 12.5279C24.4289 12.4079 24.4589 12.1919 24.4589 11.8799V7.75793C24.4589 7.39793 24.4229 7.15193 24.3509 7.01993C24.2789 6.87593 24.1049 6.77993 23.8289 6.73193L23.2169 6.64193L23.3609 5.09392L27.3029 4.85993L27.6089 5.03993L27.7349 6.69593H27.7889C28.0769 6.08393 28.4849 5.60393 29.0129 5.25592C29.5409 4.90793 30.2069 4.73393 31.0109 4.73393C31.7429 4.73393 32.3309 4.87193 32.7749 5.14793C33.2309 5.42393 33.5609 5.79593 33.7649 6.26393C33.9689 6.73193 34.0709 7.25993 34.0709 7.84793V12.0239C34.0709 12.2759 34.1009 12.4559 34.1609 12.5639C34.2329 12.6599 34.3829 12.7259 34.6109 12.7619L35.1689 12.8519V14.2739H29.6429V12.8699L30.0389 12.7979C30.2309 12.7619 30.3569 12.6899 30.4169 12.5819C30.4769 12.4739 30.5069 12.2939 30.5069 12.0419V8.63993C30.5069 8.23193 30.4709 7.91393 30.3989 7.68593C30.3269 7.44593 30.2129 7.27193 30.0569 7.16393C29.9009 7.05593 29.6969 7.00193 29.4449 7.00193C29.1809 7.00193 28.9409 7.06193 28.7249 7.18193C28.5209 7.30193 28.3529 7.50593 28.2209 7.79393C28.0889 8.06993 28.0229 8.44793 28.0229 8.92793V11.9879C28.0229 12.2519 28.0469 12.4439 28.0949 12.5639C28.1549 12.6719 28.2749 12.7439 28.4549 12.7799L28.9049 12.8699V14.2739H23.3609ZM41.902 18.4139C41.146 18.4139 40.528 18.2399 40.048 17.8919C39.568 17.5439 39.328 17.0759 39.328 16.4879C39.328 16.0679 39.46 15.7019 39.724 15.3899C39.988 15.0779 40.342 14.9219 40.786 14.9219C41.206 14.9219 41.512 15.0119 41.704 15.1919C41.896 15.3839 41.992 15.5999 41.992 15.8399C42.004 15.9719 41.98 16.1399 41.92 16.3439C41.86 16.5599 41.782 16.7879 41.686 17.0279C42.034 17.0759 42.328 17.0339 42.568 16.9019C42.808 16.7699 43.018 16.5599 43.198 16.2719C43.39 15.9839 43.57 15.6359 43.738 15.2279L43.972 14.7059L40.678 7.54193C40.57 7.28993 40.474 7.09793 40.39 6.96593C40.306 6.83393 40.144 6.73793 39.904 6.67793L39.364 6.55193L39.526 4.98593H45.214V6.49793L44.638 6.56993C44.374 6.60593 44.212 6.70193 44.152 6.85793C44.104 7.00193 44.152 7.24193 44.296 7.57793L45.772 11.1779H45.862L47.248 7.68593C47.368 7.38593 47.404 7.14593 47.356 6.96593C47.32 6.78593 47.164 6.67193 46.888 6.62393L46.276 6.49793L46.492 4.98593H50.434V6.51593L49.858 6.62393C49.63 6.67193 49.462 6.76793 49.354 6.91193C49.258 7.04393 49.132 7.30193 48.976 7.68593L46.15 14.4359C45.886 15.0839 45.622 15.6539 45.358 16.1459C45.094 16.6379 44.8 17.0519 44.476 17.3879C44.164 17.7239 43.798 17.9759 43.378 18.1439C42.97 18.3239 42.478 18.4139 41.902 18.4139ZM55.6997 14.5259C54.6077 14.5259 53.6777 14.3519 52.9097 14.0039C52.1537 13.6439 51.5717 13.1099 51.1637 12.4019C50.7677 11.6939 50.5697 10.8239 50.5697 9.79193C50.5697 8.61593 50.7977 7.66193 51.2537 6.92993C51.7217 6.18593 52.3697 5.63393 53.1977 5.27393C54.0257 4.91393 54.9857 4.73393 56.0777 4.73393C57.0737 4.73393 57.9437 4.89593 58.6877 5.21993C59.4437 5.54393 60.0317 6.05393 60.4517 6.74993C60.8837 7.43393 61.0997 8.33393 61.0997 9.44993C61.0997 10.5539 60.8897 11.4839 60.4697 12.2399C60.0497 12.9839 59.4377 13.5539 58.6337 13.9499C57.8297 14.3339 56.8517 14.5259 55.6997 14.5259ZM55.9337 12.7619C56.3057 12.7619 56.5937 12.6599 56.7977 12.4559C57.0017 12.2519 57.1457 11.9279 57.2297 11.4839C57.3137 11.0399 57.3557 10.4699 57.3557 9.77393C57.3557 9.12593 57.3197 8.59193 57.2477 8.17193C57.1877 7.73993 57.0857 7.40393 56.9417 7.16393C56.8097 6.92393 56.6477 6.75593 56.4557 6.65993C56.2637 6.55193 56.0477 6.49793 55.8077 6.49793C55.4957 6.49793 55.2257 6.57593 54.9977 6.73193C54.7817 6.88793 54.6137 7.16393 54.4937 7.55993C54.3737 7.94393 54.3137 8.48993 54.3137 9.19793C54.3137 10.0379 54.3677 10.7219 54.4757 11.2499C54.5837 11.7659 54.7577 12.1499 54.9977 12.4019C55.2377 12.6419 55.5497 12.7619 55.9337 12.7619ZM65.9195 14.5259C64.9475 14.5259 64.2035 14.2559 63.6875 13.7159C63.1835 13.1639 62.9315 12.4019 62.9315 11.4299V7.82993C62.9315 7.48193 62.9015 7.22393 62.8415 7.05593C62.7935 6.88793 62.6255 6.77993 62.3375 6.73193L61.7435 6.64193L61.8695 5.09392L66.2075 4.85993L66.5135 5.03993V10.6559C66.5135 11.0639 66.5435 11.3879 66.6035 11.6279C66.6755 11.8559 66.7835 12.0239 66.9275 12.1319C67.0835 12.2279 67.2815 12.2759 67.5215 12.2759C67.8095 12.2759 68.0555 12.2039 68.2595 12.0599C68.4635 11.9039 68.6135 11.6819 68.7095 11.3939C68.8175 11.1059 68.8715 10.7519 68.8715 10.3319V7.81193C68.8715 7.39193 68.8355 7.12193 68.7635 7.00193C68.6915 6.86993 68.5295 6.77993 68.2775 6.73193L67.7915 6.64193L68.0075 5.09392L72.1475 4.85993L72.4535 5.03993V11.6099C72.4535 11.9819 72.4955 12.2459 72.5795 12.4019C72.6635 12.5459 72.8075 12.6419 73.0115 12.6899L73.6235 12.7979L73.6055 14.2739L69.3935 14.4179L69.1415 12.7979H69.0695C68.8775 13.1099 68.6555 13.3979 68.4035 13.6619C68.1635 13.9139 67.8455 14.1179 67.4495 14.2739C67.0655 14.4419 66.5555 14.5259 65.9195 14.5259ZM78.3097 14.2739V12.8519L78.9037 12.7439C79.1437 12.6959 79.2937 12.6179 79.3537 12.5099C79.4137 12.3899 79.4437 12.1679 79.4437 11.8439V6.74993H78.0757V5.29193L79.4797 5.03993V4.62593C79.4797 3.79793 79.6897 3.04793 80.1097 2.37593C80.5297 1.70393 81.1477 1.17593 81.9637 0.791926C82.7797 0.395925 83.7817 0.197925 84.9697 0.197925C85.7137 0.197925 86.3677 0.257925 86.9317 0.377926C87.5077 0.497925 87.9817 0.665925 88.3537 0.881925C88.7377 1.09793 89.0257 1.36193 89.2177 1.67392C89.4217 1.97393 89.5237 2.30393 89.5237 2.66393C89.5237 3.09593 89.3917 3.44393 89.1277 3.70793C88.8757 3.95993 88.4857 4.08592 87.9577 4.08592C87.5137 4.08592 87.1657 3.99593 86.9137 3.81593C86.6737 3.63593 86.5537 3.38393 86.5537 3.05993C86.5537 2.87993 86.5897 2.69393 86.6617 2.50192C86.7337 2.30993 86.8357 2.10593 86.9677 1.88993C86.7277 1.80593 86.4517 1.73392 86.1397 1.67392C85.8397 1.61392 85.5157 1.58393 85.1677 1.58393C84.7597 1.58393 84.3877 1.65593 84.0517 1.79993C83.7277 1.93193 83.4757 2.14793 83.2957 2.44793C83.1157 2.74793 83.0257 3.14393 83.0257 3.63593V4.98593H89.7217L90.0277 5.16593V11.8799C90.0277 12.1799 90.0517 12.3899 90.0997 12.5099C90.1597 12.6179 90.2917 12.6899 90.4957 12.7259L91.1797 12.8519V14.2739H85.3477V12.8519L85.9597 12.7259C86.1637 12.6899 86.2957 12.6179 86.3557 12.5099C86.4157 12.3899 86.4457 12.1739 86.4457 11.8619V7.81193C86.4457 7.42793 86.4037 7.15793 86.3197 7.00193C86.2357 6.83393 86.0137 6.74993 85.6537 6.74993H83.0257V11.9159C83.0257 12.2159 83.0677 12.4139 83.1517 12.5099C83.2477 12.6059 83.4397 12.6839 83.7277 12.7439L84.2497 12.8519V14.2739H78.3097ZM92.2144 14.2739V12.8519L92.8444 12.7259C93.0364 12.7019 93.1624 12.6359 93.2224 12.5279C93.2824 12.4079 93.3124 12.1919 93.3124 11.8799V7.75793C93.3124 7.39793 93.2764 7.15193 93.2044 7.01993C93.1324 6.87593 92.9584 6.77993 92.6824 6.73193L92.0704 6.64193L92.2144 5.09392L96.1564 4.85993L96.4624 5.03993L96.5884 6.69593H96.6424C96.9304 6.08393 97.3384 5.60393 97.8664 5.25592C98.3944 4.90793 99.0604 4.73393 99.8644 4.73393C100.596 4.73393 101.184 4.87193 101.628 5.14793C102.084 5.42393 102.414 5.79593 102.618 6.26393C102.822 6.73193 102.924 7.25993 102.924 7.84793V12.0239C102.924 12.2759 102.954 12.4559 103.014 12.5639C103.086 12.6599 103.236 12.7259 103.464 12.7619L104.022 12.8519V14.2739H98.4964V12.8699L98.8924 12.7979C99.0844 12.7619 99.2104 12.6899 99.2704 12.5819C99.3304 12.4739 99.3604 12.2939 99.3604 12.0419V8.63993C99.3604 8.23193 99.3244 7.91393 99.2524 7.68593C99.1804 7.44593 99.0664 7.27193 98.9104 7.16393C98.7544 7.05593 98.5504 7.00193 98.2984 7.00193C98.0344 7.00193 97.7944 7.06193 97.5784 7.18193C97.3744 7.30193 97.2064 7.50593 97.0744 7.79393C96.9424 8.06993 96.8764 8.44793 96.8764 8.92793V11.9879C96.8764 12.2519 96.9004 12.4439 96.9484 12.5639C97.0084 12.6719 97.1284 12.7439 97.3084 12.7799L97.7584 12.8699V14.2739H92.2144ZM108.811 14.5259C107.935 14.5259 107.203 14.3459 106.615 13.9859C106.039 13.6139 105.601 13.0859 105.301 12.4019C105.001 11.7059 104.851 10.8779 104.851 9.91793C104.851 8.86193 105.031 7.94993 105.391 7.18193C105.751 6.40193 106.273 5.80193 106.957 5.38193C107.653 4.94993 108.487 4.73393 109.459 4.73393C109.903 4.73393 110.287 4.78193 110.611 4.87793C110.935 4.96193 111.223 5.07593 111.475 5.21993V3.14993C111.475 2.82593 111.433 2.59793 111.349 2.46593C111.277 2.33393 111.085 2.24393 110.773 2.19593L110.107 2.08792L110.251 0.593925L114.769 0.467925L115.057 0.773925V11.9339C115.057 12.2099 115.087 12.3959 115.147 12.4919C115.219 12.5759 115.381 12.6479 115.633 12.7079L116.209 12.8159V14.2919L111.997 14.4179L111.781 12.9599H111.709C111.553 13.2359 111.349 13.4939 111.097 13.7339C110.857 13.9619 110.551 14.1479 110.179 14.2919C109.807 14.4479 109.351 14.5259 108.811 14.5259ZM110.053 12.5459C110.365 12.5459 110.623 12.4739 110.827 12.3299C111.043 12.1859 111.205 11.9699 111.313 11.6819C111.421 11.3939 111.475 11.0459 111.475 10.6379V7.10993C111.271 6.96593 111.055 6.85793 110.827 6.78593C110.611 6.71393 110.371 6.67793 110.107 6.67793C109.759 6.67793 109.471 6.78593 109.243 7.00193C109.015 7.20593 108.847 7.52993 108.739 7.97393C108.643 8.41793 108.595 8.98193 108.595 9.66593C108.595 10.3379 108.649 10.8839 108.757 11.3039C108.865 11.7239 109.027 12.0359 109.243 12.2399C109.471 12.4439 109.741 12.5459 110.053 12.5459ZM124.916 14.5259C124.256 14.5259 123.692 14.4239 123.224 14.2199C122.768 14.0039 122.42 13.6799 122.18 13.2479C121.94 12.8159 121.82 12.2879 121.82 11.6639V6.74993H120.596V5.25592C121.208 5.14792 121.676 4.97392 122 4.73393C122.336 4.48193 122.582 4.13993 122.738 3.70793C122.894 3.26393 123.008 2.71193 123.08 2.05193L125.042 1.79993L125.402 1.97993V4.98593H127.796V6.74993H125.402V10.9799C125.402 11.3759 125.462 11.6939 125.582 11.9339C125.702 12.1619 125.954 12.2759 126.338 12.2759C126.566 12.2759 126.794 12.2339 127.022 12.1499C127.262 12.0659 127.49 11.9579 127.706 11.8259L128.39 13.1219C128.006 13.5179 127.532 13.8539 126.968 14.1299C126.416 14.3939 125.732 14.5259 124.916 14.5259ZM133.94 14.5259C132.848 14.5259 131.918 14.3519 131.15 14.0039C130.394 13.6439 129.812 13.1099 129.404 12.4019C129.008 11.6939 128.81 10.8239 128.81 9.79193C128.81 8.61593 129.038 7.66193 129.494 6.92993C129.962 6.18593 130.61 5.63393 131.438 5.27393C132.266 4.91393 133.226 4.73393 134.318 4.73393C135.314 4.73393 136.184 4.89593 136.928 5.21993C137.684 5.54393 138.272 6.05393 138.692 6.74993C139.124 7.43393 139.34 8.33393 139.34 9.44993C139.34 10.5539 139.13 11.4839 138.71 12.2399C138.29 12.9839 137.678 13.5539 136.874 13.9499C136.07 14.3339 135.092 14.5259 133.94 14.5259ZM134.174 12.7619C134.546 12.7619 134.834 12.6599 135.038 12.4559C135.242 12.2519 135.386 11.9279 135.47 11.4839C135.554 11.0399 135.596 10.4699 135.596 9.77393C135.596 9.12593 135.56 8.59193 135.488 8.17193C135.428 7.73993 135.326 7.40393 135.182 7.16393C135.05 6.92393 134.888 6.75593 134.696 6.65993C134.504 6.55193 134.288 6.49793 134.048 6.49793C133.736 6.49793 133.466 6.57593 133.238 6.73193C133.022 6.88793 132.854 7.16393 132.734 7.55993C132.614 7.94393 132.554 8.48993 132.554 9.19793C132.554 10.0379 132.608 10.7219 132.716 11.2499C132.824 11.7659 132.998 12.1499 133.238 12.4019C133.478 12.6419 133.79 12.7619 134.174 12.7619ZM144.424 14.5259C143.548 14.5259 142.816 14.3459 142.228 13.9859C141.652 13.6139 141.214 13.0859 140.914 12.4019C140.614 11.7059 140.464 10.8779 140.464 9.91793C140.464 8.86193 140.644 7.94993 141.004 7.18193C141.364 6.40193 141.886 5.80193 142.57 5.38193C143.266 4.94993 144.1 4.73393 145.072 4.73393C145.516 4.73393 145.9 4.78193 146.224 4.87793C146.548 4.96193 146.836 5.07593 147.088 5.21993V3.14993C147.088 2.82593 147.046 2.59793 146.962 2.46593C146.89 2.33393 146.698 2.24393 146.386 2.19593L145.72 2.08792L145.864 0.593925L150.382 0.467925L150.67 0.773925V11.9339C150.67 12.2099 150.7 12.3959 150.76 12.4919C150.832 12.5759 150.994 12.6479 151.246 12.7079L151.822 12.8159V14.2919L147.61 14.4179L147.394 12.9599H147.322C147.166 13.2359 146.962 13.4939 146.71 13.7339C146.47 13.9619 146.164 14.1479 145.792 14.2919C145.42 14.4479 144.964 14.5259 144.424 14.5259ZM145.666 12.5459C145.978 12.5459 146.236 12.4739 146.44 12.3299C146.656 12.1859 146.818 11.9699 146.926 11.6819C147.034 11.3939 147.088 11.0459 147.088 10.6379V7.10993C146.884 6.96593 146.668 6.85793 146.44 6.78593C146.224 6.71393 145.984 6.67793 145.72 6.67793C145.372 6.67793 145.084 6.78593 144.856 7.00193C144.628 7.20593 144.46 7.52993 144.352 7.97393C144.256 8.41793 144.208 8.98193 144.208 9.66593C144.208 10.3379 144.262 10.8839 144.37 11.3039C144.478 11.7239 144.64 12.0359 144.856 12.2399C145.084 12.4439 145.354 12.5459 145.666 12.5459ZM155.631 14.5259C154.707 14.5259 153.993 14.3039 153.489 13.8599C152.985 13.4159 152.733 12.8159 152.733 12.0599C152.733 11.3159 152.925 10.7459 153.309 10.3499C153.693 9.94193 154.269 9.64793 155.037 9.46793C155.817 9.28793 156.801 9.17393 157.989 9.12593V7.86593C157.989 7.45793 157.953 7.12193 157.881 6.85793C157.821 6.58193 157.695 6.37793 157.503 6.24593C157.323 6.11393 157.053 6.04793 156.693 6.04793C156.453 6.04793 156.207 6.08393 155.955 6.15593C155.715 6.21593 155.505 6.29993 155.325 6.40793C155.457 6.59993 155.559 6.77393 155.631 6.92993C155.715 7.07393 155.769 7.19993 155.793 7.30793C155.829 7.41593 155.847 7.51193 155.847 7.59593C155.847 7.88393 155.715 8.12393 155.451 8.31593C155.199 8.50793 154.815 8.60393 154.299 8.60393C153.831 8.60393 153.483 8.49593 153.255 8.27993C153.039 8.06393 152.931 7.78193 152.931 7.43393C152.931 6.92993 153.111 6.47393 153.471 6.06593C153.831 5.65793 154.341 5.33993 155.001 5.11193C155.661 4.87193 156.441 4.75192 157.341 4.75192C158.313 4.75192 159.105 4.87793 159.717 5.12993C160.341 5.38193 160.803 5.77193 161.103 6.29993C161.403 6.81593 161.553 7.48193 161.553 8.29793V11.8079C161.553 12.0839 161.595 12.2879 161.679 12.4199C161.775 12.5519 161.937 12.6179 162.165 12.6179C162.285 12.6179 162.399 12.6059 162.507 12.5819C162.615 12.5579 162.717 12.5279 162.813 12.4919L163.065 13.6619C162.801 13.8779 162.447 14.0759 162.003 14.2559C161.571 14.4359 161.103 14.5259 160.599 14.5259C159.963 14.5259 159.459 14.3879 159.087 14.1119C158.715 13.8359 158.475 13.4879 158.367 13.0679C158.247 13.3079 158.067 13.5419 157.827 13.7699C157.587 13.9859 157.287 14.1659 156.927 14.3099C156.567 14.4539 156.135 14.5259 155.631 14.5259ZM157.017 12.7979C157.221 12.7979 157.395 12.7559 157.539 12.6719C157.683 12.5879 157.791 12.4619 157.863 12.2939C157.947 12.1259 157.989 11.9279 157.989 11.6999V10.4039C157.581 10.4039 157.245 10.4519 156.981 10.5479C156.717 10.6319 156.519 10.7699 156.387 10.9619C156.267 11.1419 156.207 11.3879 156.207 11.6999C156.207 12.0359 156.267 12.3059 156.387 12.5099C156.519 12.7019 156.729 12.7979 157.017 12.7979ZM164.879 18.4139C164.123 18.4139 163.505 18.2399 163.025 17.8919C162.545 17.5439 162.305 17.0759 162.305 16.4879C162.305 16.0679 162.437 15.7019 162.701 15.3899C162.965 15.0779 163.319 14.9219 163.763 14.9219C164.183 14.9219 164.489 15.0119 164.681 15.1919C164.873 15.3839 164.969 15.5999 164.969 15.8399C164.981 15.9719 164.957 16.1399 164.897 16.3439C164.837 16.5599 164.759 16.7879 164.663 17.0279C165.011 17.0759 165.305 17.0339 165.545 16.9019C165.785 16.7699 165.995 16.5599 166.175 16.2719C166.367 15.9839 166.547 15.6359 166.715 15.2279L166.949 14.7059L163.655 7.54193C163.547 7.28993 163.451 7.09793 163.367 6.96593C163.283 6.83393 163.121 6.73793 162.881 6.67793L162.341 6.55193L162.503 4.98593H168.191V6.49793L167.615 6.56993C167.351 6.60593 167.189 6.70193 167.129 6.85793C167.081 7.00193 167.129 7.24193 167.273 7.57793L168.749 11.1779H168.839L170.225 7.68593C170.345 7.38593 170.381 7.14593 170.333 6.96593C170.297 6.78593 170.141 6.67193 169.865 6.62393L169.253 6.49793L169.469 4.98593H173.411V6.51593L172.835 6.62393C172.607 6.67193 172.439 6.76793 172.331 6.91193C172.235 7.04393 172.109 7.30193 171.953 7.68593L169.127 14.4359C168.863 15.0839 168.599 15.6539 168.335 16.1459C168.071 16.6379 167.777 17.0519 167.453 17.3879C167.141 17.7239 166.775 17.9759 166.355 18.1439C165.947 18.3239 165.455 18.4139 164.879 18.4139ZM175.544 5.77793L174.842 4.80593C175.274 4.50593 175.604 4.20593 175.832 3.90593C176.06 3.60593 176.192 3.28193 176.228 2.93392H175.994C175.79 2.93392 175.58 2.89192 175.364 2.80793C175.148 2.71193 174.962 2.56192 174.806 2.35792C174.662 2.15393 174.59 1.88393 174.59 1.54793C174.59 1.10393 174.752 0.737926 175.076 0.449926C175.4 0.149925 175.826 -7.49826e-05 176.354 -7.49826e-05C176.93 -7.49826e-05 177.38 0.173925 177.704 0.521925C178.028 0.869925 178.19 1.30193 178.19 1.81793C178.19 2.29793 178.088 2.77793 177.884 3.25792C177.692 3.73793 177.398 4.19393 177.002 4.62593C176.618 5.05793 176.132 5.44193 175.544 5.77793ZM178.477 14.5259L178.225 11.2319L179.863 11.1419C180.055 11.5619 180.277 11.9099 180.529 12.1859C180.781 12.4499 181.063 12.6479 181.375 12.7799C181.687 12.8999 182.029 12.9599 182.401 12.9599C182.845 12.9599 183.169 12.8819 183.373 12.7259C183.589 12.5579 183.697 12.3239 183.697 12.0239C183.697 11.8199 183.625 11.6579 183.481 11.5379C183.349 11.4179 183.133 11.3159 182.833 11.2319C182.545 11.1359 182.167 11.0399 181.699 10.9439C181.327 10.8599 180.937 10.7519 180.529 10.6199C180.133 10.4879 179.767 10.3139 179.431 10.0979C179.095 9.88193 178.819 9.59393 178.603 9.23393C178.399 8.86193 178.297 8.39993 178.297 7.84793C178.297 7.17593 178.453 6.61193 178.765 6.15593C179.089 5.68793 179.533 5.33393 180.097 5.09392C180.661 4.85393 181.309 4.73393 182.041 4.73393C182.557 4.73393 183.019 4.79393 183.427 4.91393C183.835 5.03392 184.171 5.17193 184.435 5.32793L184.597 4.73393H185.947L186.127 7.86593L184.543 7.77593C184.303 7.18793 183.979 6.76793 183.571 6.51593C183.175 6.25193 182.737 6.11993 182.257 6.11993C181.873 6.11993 181.579 6.18593 181.375 6.31793C181.171 6.44993 181.069 6.65993 181.069 6.94793C181.069 7.13993 181.135 7.30193 181.267 7.43393C181.399 7.55393 181.609 7.66193 181.897 7.75793C182.185 7.84193 182.551 7.94393 182.995 8.06393C183.475 8.18393 183.925 8.31593 184.345 8.45993C184.777 8.59193 185.155 8.77193 185.479 8.99993C185.803 9.21593 186.055 9.49793 186.235 9.84593C186.427 10.1819 186.523 10.6079 186.523 11.1239C186.523 11.8439 186.361 12.4619 186.037 12.9779C185.713 13.4819 185.257 13.8659 184.669 14.1299C184.093 14.3939 183.415 14.5259 182.635 14.5259C182.059 14.5259 181.555 14.4599 181.123 14.3279C180.703 14.2079 180.337 14.0579 180.025 13.8779L179.809 14.5259H178.477ZM194.255 14.2739L192.167 7.68593C192.095 7.46993 192.023 7.29593 191.951 7.16393C191.891 7.03193 191.813 6.93593 191.717 6.87593C191.621 6.80393 191.501 6.74993 191.357 6.71393L190.709 6.55193L190.907 4.98593H196.469V6.49793L195.839 6.60593C195.683 6.62993 195.587 6.70793 195.551 6.83993C195.515 6.97193 195.545 7.18193 195.641 7.46993L196.685 11.0159H196.757L198.161 4.98593H201.635L203.183 10.9979H203.273L204.227 7.59593C204.323 7.27193 204.323 7.04393 204.227 6.91193C204.143 6.76793 203.993 6.67193 203.777 6.62393L203.273 6.49793L203.489 4.98593H207.251V6.49793L206.657 6.60593C206.429 6.65393 206.231 6.76193 206.063 6.92993C205.907 7.08593 205.763 7.39793 205.631 7.86593L203.759 14.2739H200.771L199.133 8.15393H199.079L197.639 14.2739H194.255ZM212.602 14.5259C211.51 14.5259 210.58 14.3519 209.812 14.0039C209.056 13.6439 208.474 13.1099 208.066 12.4019C207.67 11.6939 207.472 10.8239 207.472 9.79193C207.472 8.61593 207.7 7.66193 208.156 6.92993C208.624 6.18593 209.272 5.63393 210.1 5.27393C210.928 4.91393 211.888 4.73393 212.98 4.73393C213.976 4.73393 214.846 4.89593 215.59 5.21993C216.346 5.54393 216.934 6.05393 217.354 6.74993C217.786 7.43393 218.002 8.33393 218.002 9.44993C218.002 10.5539 217.792 11.4839 217.372 12.2399C216.952 12.9839 216.34 13.5539 215.536 13.9499C214.732 14.3339 213.754 14.5259 212.602 14.5259ZM212.836 12.7619C213.208 12.7619 213.496 12.6599 213.7 12.4559C213.904 12.2519 214.048 11.9279 214.132 11.4839C214.216 11.0399 214.258 10.4699 214.258 9.77393C214.258 9.12593 214.222 8.59193 214.15 8.17193C214.09 7.73993 213.988 7.40393 213.844 7.16393C213.712 6.92393 213.55 6.75593 213.358 6.65993C213.166 6.55193 212.95 6.49793 212.71 6.49793C212.398 6.49793 212.128 6.57593 211.9 6.73193C211.684 6.88793 211.516 7.16393 211.396 7.55993C211.276 7.94393 211.216 8.48993 211.216 9.19793C211.216 10.0379 211.27 10.7219 211.378 11.2499C211.486 11.7659 211.66 12.1499 211.9 12.4019C212.14 12.6419 212.452 12.7619 212.836 12.7619ZM219.058 14.2739V12.8519L219.706 12.7259C219.898 12.6899 220.018 12.6119 220.066 12.4919C220.126 12.3719 220.156 12.1559 220.156 11.8439V7.84793C220.156 7.46393 220.126 7.19393 220.066 7.03793C220.018 6.88193 219.85 6.77993 219.562 6.73193L218.914 6.64193L219.058 5.09392L222.964 4.85993L223.288 5.03993L223.432 6.71393H223.486C223.75 6.12593 224.14 5.65193 224.656 5.29193C225.172 4.91993 225.76 4.73393 226.42 4.73393C227.128 4.73393 227.68 4.93193 228.076 5.32793C228.484 5.71193 228.688 6.22193 228.688 6.85793C228.688 7.28993 228.622 7.66193 228.49 7.97393C228.358 8.27393 228.16 8.50193 227.896 8.65793C227.632 8.81393 227.308 8.89193 226.924 8.89193C226.42 8.89193 226.048 8.78993 225.808 8.58593C225.568 8.38193 225.448 8.14193 225.448 7.86593C225.448 7.75793 225.454 7.65593 225.466 7.55993C225.49 7.46393 225.526 7.34993 225.574 7.21793C225.634 7.08593 225.706 6.91793 225.79 6.71393C225.55 6.64193 225.304 6.64193 225.052 6.71393C224.812 6.77393 224.59 6.89993 224.386 7.09193C224.182 7.28393 224.02 7.53593 223.9 7.84793C223.78 8.14793 223.72 8.49593 223.72 8.89193V11.8799C223.72 12.1799 223.75 12.3899 223.81 12.5099C223.882 12.6299 224.032 12.7019 224.26 12.7259L225.43 12.8519V14.2739H219.058ZM233.141 14.5259C232.265 14.5259 231.533 14.3459 230.945 13.9859C230.369 13.6139 229.931 13.0859 229.631 12.4019C229.331 11.7059 229.181 10.8779 229.181 9.91793C229.181 8.86193 229.361 7.94993 229.721 7.18193C230.081 6.40193 230.603 5.80193 231.287 5.38193C231.983 4.94993 232.817 4.73393 233.789 4.73393C234.233 4.73393 234.617 4.78193 234.941 4.87793C235.265 4.96193 235.553 5.07593 235.805 5.21993V3.14993C235.805 2.82593 235.763 2.59793 235.679 2.46593C235.607 2.33393 235.415 2.24393 235.103 2.19593L234.437 2.08792L234.581 0.593925L239.099 0.467925L239.387 0.773925V11.9339C239.387 12.2099 239.417 12.3959 239.477 12.4919C239.549 12.5759 239.711 12.6479 239.963 12.7079L240.539 12.8159V14.2919L236.327 14.4179L236.111 12.9599H236.039C235.883 13.2359 235.679 13.4939 235.427 13.7339C235.187 13.9619 234.881 14.1479 234.509 14.2919C234.137 14.4479 233.681 14.5259 233.141 14.5259ZM234.383 12.5459C234.695 12.5459 234.953 12.4739 235.157 12.3299C235.373 12.1859 235.535 11.9699 235.643 11.6819C235.751 11.3939 235.805 11.0459 235.805 10.6379V7.10993C235.601 6.96593 235.385 6.85793 235.157 6.78593C234.941 6.71393 234.701 6.67793 234.437 6.67793C234.089 6.67793 233.801 6.78593 233.573 7.00193C233.345 7.20593 233.177 7.52993 233.069 7.97393C232.973 8.41793 232.925 8.98193 232.925 9.66593C232.925 10.3379 232.979 10.8839 233.087 11.3039C233.195 11.7239 233.357 12.0359 233.573 12.2399C233.801 12.4439 234.071 12.5459 234.383 12.5459ZM243.68 10.2599V8.17193C243.68 7.81193 243.71 7.50593 243.77 7.25393C243.842 6.98993 243.968 6.74993 244.148 6.53393C244.34 6.30593 244.622 6.05993 244.994 5.79593C245.426 5.47193 245.75 5.19593 245.966 4.96793C246.182 4.72793 246.29 4.43393 246.29 4.08592C246.29 3.71393 246.152 3.42593 245.876 3.22193C245.612 3.00593 245.252 2.89793 244.796 2.89793C244.448 2.89793 244.142 2.93993 243.878 3.02393C243.614 3.10793 243.392 3.21593 243.212 3.34792C243.38 3.59993 243.512 3.82793 243.608 4.03193C243.704 4.23593 243.752 4.43993 243.752 4.64393C243.752 4.93193 243.638 5.17793 243.41 5.38193C243.194 5.58593 242.852 5.68793 242.384 5.68793C241.904 5.68793 241.526 5.56193 241.25 5.30993C240.974 5.04593 240.836 4.69193 240.836 4.24793C240.836 3.74393 241.016 3.27593 241.376 2.84392C241.748 2.39992 242.276 2.04593 242.96 1.78193C243.656 1.50593 244.49 1.36793 245.462 1.36793C246.386 1.36793 247.172 1.48793 247.82 1.72793C248.468 1.96793 248.954 2.30992 249.278 2.75392C249.614 3.18593 249.782 3.70193 249.782 4.30193C249.782 4.75793 249.698 5.17193 249.53 5.54393C249.374 5.91593 249.11 6.27593 248.738 6.62393C248.378 6.95993 247.892 7.33193 247.28 7.73993C246.956 7.96793 246.698 8.16593 246.506 8.33393C246.326 8.50193 246.188 8.65193 246.092 8.78393C246.008 8.91593 245.954 9.04193 245.93 9.16193C245.906 9.26993 245.894 9.38993 245.894 9.52193V10.2599H243.68ZM244.778 14.5439C244.214 14.5439 243.77 14.3999 243.446 14.1119C243.122 13.8239 242.96 13.4399 242.96 12.9599C242.96 12.4919 243.122 12.1199 243.446 11.8439C243.77 11.5559 244.214 11.4119 244.778 11.4119C245.354 11.4119 245.792 11.5559 246.092 11.8439C246.404 12.1199 246.56 12.4979 246.56 12.9779C246.56 13.4459 246.398 13.8239 246.074 14.1119C245.75 14.3999 245.318 14.5439 244.778 14.5439Z" fill="#191919"/>
</svg>
